<svg xmlns="http://www.w3.org/2000/svg" width="640" height="400" viewBox="0 0 480 300"><rect width="480" height="300" fill="#FFF8ED"/><ellipse cx="240" cy="270" rx="127" ry="12" fill="#E7E9D9"/><rect x="75" y="109" width="326" height="24" rx="6" fill="#DDB98D" stroke="#253B53" stroke-width="5"/><rect x="306" y="134" width="76" height="92" rx="4" fill="#3286D9" stroke="#253B53" stroke-width="5"/><path d="M105 134L105 252" fill="none" stroke="#253B53" stroke-width="6" stroke-linecap="round"/><path d="M374 226L374 252" fill="none" stroke="#253B53" stroke-width="6" stroke-linecap="round"/><path d="M307 169L381 169" fill="none" stroke="#253B53" stroke-width="6" stroke-linecap="round"/><path d="M328 151L355 151" fill="none" stroke="#253B53" stroke-width="6" stroke-linecap="round"/><path d="M328 197L355 197" fill="none" stroke="#253B53" stroke-width="6" stroke-linecap="round"/><svg x="125" y="41" width="103" height="103" viewBox="0 0 72 72">
  <g id="color">
    <path fill="#9b9b9a" stroke="none" stroke-linecap="round" stroke-linejoin="round" stroke-miterlimit="10" stroke-width="2" d="M41,56c0,2.7614-2.2386,5-5,5s-5-2.2386-5-5"/>
    <path fill="#d0cfce" stroke="none" stroke-linecap="round" stroke-linejoin="round" stroke-miterlimit="10" stroke-width="2" d="M67.0015,56H4.9985C4.447,56,4,55.553,4,55.0015v-38.003C4,16.447,4.447,16,4.9985,16h62.003C67.553,16,68,16.447,68,16.9985 v38.003C68,55.553,67.553,56,67.0015,56z"/>
    <path fill="#FFFFFF" stroke="none" stroke-linecap="round" stroke-linejoin="round" stroke-miterlimit="10" stroke-width="2" d="M64.0015,51.625H7.9985C7.447,51.625,7,51.178,7,50.6265v-29.253c0-0.5514,0.447-0.9985,0.9985-0.9985h56.003 C64.553,20.375,65,20.822,65,21.3735v29.253C65,51.178,64.553,51.625,64.0015,51.625z"/>
  </g>
  <g id="hair"/>
  <g id="skin"/>
  <g id="skin-shadow"/>
  <g id="line">
    <path fill="none" stroke="#000000" stroke-linecap="round" stroke-linejoin="round" stroke-miterlimit="10" stroke-width="2" d="M41,56c0,2.7614-2.2386,5-5,5s-5-2.2386-5-5"/>
    <path fill="none" stroke="#000000" stroke-linecap="round" stroke-linejoin="round" stroke-miterlimit="10" stroke-width="2" d="M67.0015,56H4.9985C4.447,56,4,55.553,4,55.0015v-38.003C4,16.447,4.447,16,4.9985,16h62.003C67.553,16,68,16.447,68,16.9985 v38.003C68,55.553,67.553,56,67.0015,56z"/>
    <path fill="none" stroke="#000000" stroke-linecap="round" stroke-linejoin="round" stroke-miterlimit="10" stroke-width="2" d="M64.0015,51.625H7.9985C7.447,51.625,7,51.178,7,50.6265v-29.253c0-0.5514,0.447-0.9985,0.9985-0.9985h56.003 C64.553,20.375,65,20.822,65,21.3735v29.253C65,51.178,64.553,51.625,64.0015,51.625z"/>
    <line x1="36" x2="36" y1="17" y2="55" fill="none" stroke="#000000" stroke-linecap="round" stroke-linejoin="round" stroke-miterlimit="10" stroke-width="2"/>
    <line x1="11" x2="31" y1="27" y2="27" fill="none" stroke="#000000" stroke-linecap="round" stroke-linejoin="round" stroke-miterlimit="10" stroke-width="2"/>
    <line x1="11" x2="31" y1="33" y2="33" fill="none" stroke="#000000" stroke-linecap="round" stroke-linejoin="round" stroke-miterlimit="10" stroke-width="2"/>
    <line x1="11" x2="31" y1="39" y2="39" fill="none" stroke="#000000" stroke-linecap="round" stroke-linejoin="round" stroke-miterlimit="10" stroke-width="2"/>
    <line x1="11" x2="31" y1="45" y2="45" fill="none" stroke="#000000" stroke-linecap="round" stroke-linejoin="round" stroke-miterlimit="10" stroke-width="2"/>
    <line x1="41" x2="61" y1="27" y2="27" fill="none" stroke="#000000" stroke-linecap="round" stroke-linejoin="round" stroke-miterlimit="10" stroke-width="2"/>
    <line x1="41" x2="61" y1="33" y2="33" fill="none" stroke="#000000" stroke-linecap="round" stroke-linejoin="round" stroke-miterlimit="10" stroke-width="2"/>
    <line x1="41" x2="61" y1="39" y2="39" fill="none" stroke="#000000" stroke-linecap="round" stroke-linejoin="round" stroke-miterlimit="10" stroke-width="2"/>
    <line x1="41" x2="61" y1="45" y2="45" fill="none" stroke="#000000" stroke-linecap="round" stroke-linejoin="round" stroke-miterlimit="10" stroke-width="2"/>
  </g>
</svg>
</svg>